<?xml version="1.0" standalone="no"?>
<!DOCTYPE svg PUBLIC "-//W3C//DTD SVG 20010904//EN"
 "http://www.w3.org/TR/2001/REC-SVG-20010904/DTD/svg10.dtd">
<svg version="1.0" xmlns="http://www.w3.org/2000/svg"
 width="700.000000pt" height="700.000000pt" viewBox="0 0 700.000000 700.000000"
 preserveAspectRatio="xMidYMid meet">
<metadata>
Created by potrace 1.11, written by Peter Selinger 2001-2013
</metadata>
<g transform="translate(0.000000,700.000000) scale(0.100000,-0.100000)"
fill="#000000" stroke="none">
<path d="M3297 5584 c-1 -1 -63 -5 -137 -8 -74 -4 -151 -9 -170 -11 -19 -1
-71 -6 -114 -10 -43 -4 -86 -8 -95 -10 -9 -1 -43 -6 -76 -9 -368 -43 -784
-141 -1125 -263 -369 -133 -812 -366 -875 -461 -96 -147 3 -335 175 -334 51 1
102 22 177 73 23 16 46 29 51 29 6 0 12 4 14 9 4 12 276 151 373 190 44 18 94
39 110 46 27 12 136 51 250 90 37 12 138 41 275 79 63 17 318 72 370 80 19 3
78 12 130 20 92 14 129 19 235 31 195 23 350 30 630 30 233 -1 456 -9 555 -20
19 -3 58 -7 85 -10 118 -13 146 -17 265 -35 888 -141 1628 -484 2011 -932 114
-134 220 -326 243 -439 3 -13 10 -49 16 -79 11 -54 14 -205 6 -246 -2 -12 -7
-37 -10 -55 -6 -42 -43 -159 -55 -178 -7 -12 -23 -2 -78 45 -267 233 -577 420
-939 565 -289 116 -355 130 -432 90 -129 -67 -161 -225 -67 -330 38 -42 48
-47 250 -121 138 -51 487 -215 493 -231 2 -5 8 -9 14 -9 35 0 344 -226 456
-334 l52 -50 -52 -54 c-189 -192 -535 -406 -884 -545 -129 -51 -387 -139 -444
-152 -14 -3 -59 -14 -100 -25 -98 -27 -271 -65 -390 -85 -124 -21 -137 -23
-190 -30 -25 -3 -61 -8 -80 -10 -19 -3 -62 -8 -95 -11 -33 -3 -73 -7 -90 -9
-213 -26 -878 -26 -1075 0 -19 2 -57 6 -85 9 -112 11 -185 20 -275 36 -30 5
-68 11 -85 13 -247 38 -642 147 -915 254 -367 145 -730 369 -923 570 l-38 40
68 63 c345 320 833 562 1438 714 142 35 358 79 450 92 28 3 59 8 70 10 11 2
58 9 105 14 47 6 108 13 135 16 218 26 664 35 945 20 74 -5 141 -9 150 -11 8
-1 53 -6 100 -10 47 -4 93 -9 103 -11 10 -1 70 -10 135 -19 64 -9 182 -29 262
-46 208 -42 253 -39 321 19 23 20 49 52 57 71 20 46 24 116 10 160 -14 45 -69
104 -115 124 -32 14 -218 55 -318 71 -16 2 -50 8 -75 11 -25 4 -53 9 -62 11
-10 1 -80 10 -155 19 -76 9 -149 18 -163 20 -178 27 -972 27 -1195 0 -16 -2
-55 -6 -85 -10 -70 -7 -124 -14 -175 -21 -22 -3 -51 -7 -65 -9 -36 -5 -112
-17 -135 -21 -11 -2 -47 -9 -80 -15 -111 -20 -132 -25 -180 -37 -22 -6 -52
-13 -66 -16 -100 -17 -454 -124 -609 -183 -423 -162 -798 -380 -1054 -614 -66
-60 -65 -60 -96 39 -44 141 -53 299 -24 437 34 164 150 375 287 522 76 81 95
122 91 195 -8 152 -172 248 -305 179 -91 -48 -276 -283 -371 -473 l-38 -77 0
-523 0 -524 39 -75 c115 -226 287 -430 526 -625 182 -148 515 -344 745 -438
36 -15 74 -31 85 -36 113 -53 487 -175 645 -211 25 -6 52 -12 60 -14 72 -19
267 -59 335 -70 11 -2 54 -8 95 -15 80 -13 95 -15 179 -25 29 -4 63 -8 75 -10
11 -2 57 -7 101 -10 44 -4 94 -9 110 -11 207 -22 906 -22 1023 1 10 2 55 6 98
10 43 4 90 8 104 10 25 4 81 11 150 19 37 5 208 32 250 41 14 2 36 7 50 10 14
2 36 7 50 9 35 6 239 54 278 65 18 5 33 9 35 9 10 -5 384 117 517 169 317 123
713 348 904 513 249 213 394 388 505 605 l41 80 0 523 0 523 -29 62 c-73 154
-201 327 -356 481 -77 77 -219 197 -291 246 -126 87 -176 120 -180 120 -2 0
-22 11 -44 25 -365 231 -987 448 -1555 544 -142 24 -293 44 -425 56 -36 3 -76
8 -90 10 -76 11 -721 28 -733 19z"/>
</g>
</svg>
