<?xml version="1.0" encoding="iso-8859-1"?>
<!-- Generator: Adobe Illustrator 19.0.0, SVG Export Plug-In . SVG Version: 6.00 Build 0)  -->
<svg version="1.1" id="Capa_1" xmlns="http://www.w3.org/2000/svg" xmlns:xlink="http://www.w3.org/1999/xlink" x="0px" y="0px"
	 viewBox="0 0 512 512" style="enable-background:new 0 0 512 512;" xml:space="preserve">
<g>
	<g stroke="#3d3d3d">
		<path d="M435.314,152.494c-48.021-26.478-111.701-41.06-179.314-41.06c-76.512,0-147.373,18.584-196.022,51.196
			c-3.601,2.414-4.509,7.314-1.959,10.82l0.004,0.006c2.39,3.286,6.953,4.135,10.33,1.876
			c21.107-14.122,47.675-25.882,77.345-34.192c34.342-9.619,71.453-14.496,110.301-14.496c65.087,0,126.161,13.911,171.971,39.169
			c44.38,24.47,68.821,56.498,68.821,90.188c0,13.668-4.024,27.063-11.77,39.792c-21.856-24.636-56.223-45.436-98.454-59.505
			c-4.039-1.345-8.398,0.919-9.651,4.987v0.001c-1.219,3.957,0.962,8.146,4.891,9.455c41.234,13.734,74.212,33.984,94.064,57.741
			c-11.524,13.774-27.624,26.536-47.901,37.717c-45.81,25.258-106.884,39.169-171.971,39.169s-126.162-13.911-171.971-39.169
			c-20.28-11.182-36.382-23.946-47.905-37.723c18.035-21.62,46.567-40.151,82.955-53.808c40.393-15.16,87.74-23.173,136.922-23.173
			c32.069,0,63.127,3.36,92.439,9.993c4.039,0.914,8.064-1.562,9.059-5.582c1.022-4.133-1.543-8.309-5.696-9.248
			c-30.415-6.884-62.602-10.37-95.802-10.37c-97.822,0-186.059,30.929-229.023,79.511c-7.746-12.728-11.77-26.122-11.77-39.789
			c0-20.552,9.336-40.904,27.084-59.216c2.808-2.898,2.851-7.49,0.105-10.448l-0.002-0.002c-2.959-3.187-7.999-3.257-11.027-0.134
			C10.814,207.404,0,231.397,0,256c0,39.48,27.234,76.239,76.686,103.507c48.021,26.477,111.702,41.059,179.314,41.059
			s131.293-14.582,179.314-41.059C484.766,332.239,512,295.48,512,256C512,216.52,484.766,179.761,435.314,152.494z" stroke-width="16" />
	</g>
</g>
<g>
</g>
<g>
</g>
<g>
</g>
<g>
</g>
<g>
</g>
<g>
</g>
<g>
</g>
<g>
</g>
<g>
</g>
<g>
</g>
<g>
</g>
<g>
</g>
<g>
</g>
<g>
</g>
<g>
</g>
</svg>
